<?xml version="1.0" encoding="UTF-8" standalone="no"?>
<!-- Generator: Adobe Illustrator 22.1.0, SVG Export Plug-In . SVG Version: 6.00 Build 0)  -->

<svg
   xmlns:dc="http://purl.org/dc/elements/1.1/"
   xmlns:cc="http://creativecommons.org/ns#"
   xmlns:rdf="http://www.w3.org/1999/02/22-rdf-syntax-ns#"
   xmlns:svg="http://www.w3.org/2000/svg"
   xmlns="http://www.w3.org/2000/svg"
   xmlns:sodipodi="http://sodipodi.sourceforge.net/DTD/sodipodi-0.dtd"
   xmlns:inkscape="http://www.inkscape.org/namespaces/inkscape"
   version="1.1"
   id="Layer_1"
   x="0px"
   y="0px"
   viewBox="0 0 100 50"
   xml:space="preserve"
   sodipodi:docname="express.svg"
   width="100"
   height="50"
   inkscape:version="0.92.4 (5da689c313, 2019-01-14)"><metadata
   id="metadata35"><rdf:RDF><cc:Work
       rdf:about=""><dc:format>image/svg+xml</dc:format><dc:type
         rdf:resource="http://purl.org/dc/dcmitype/StillImage" /><dc:title /></cc:Work></rdf:RDF></metadata><defs
   id="defs33" /><sodipodi:namedview
   pagecolor="#ffffff"
   bordercolor="#666666"
   borderopacity="1"
   objecttolerance="10"
   gridtolerance="10"
   guidetolerance="10"
   inkscape:pageopacity="0"
   inkscape:pageshadow="2"
   inkscape:window-width="1366"
   inkscape:window-height="715"
   id="namedview31"
   showgrid="false"
   inkscape:zoom="4.2142857"
   inkscape:cx="47.227271"
   inkscape:cy="24.968533"
   inkscape:window-x="-8"
   inkscape:window-y="-8"
   inkscape:window-maximized="1"
   inkscape:current-layer="Layer_1" />
<style
   type="text/css"
   id="style2">
	.st0{fill:#F0DB4F;}
	.st1{fill:#3F3749;}
	.st2{fill:#FFFFFF;}
</style>


<path
   class="st0"
   d="M 95.194864,35.535804 H 75.409476 c -0.502631,0 -0.913875,-0.411244 -0.913875,-0.913875 V 14.836541 c 0,-0.502631 0.411244,-0.913875 0.913875,-0.913875 h 19.785388 c 0.502631,0 0.913875,0.411244 0.913875,0.913875 v 19.785388 c 0,0.502631 -0.411244,0.913875 -0.913875,0.913875 z"
   id="path4"
   inkscape:connector-curvature="0"
   style="fill:#f0db4f;stroke-width:1.00000012" /><g
   style="stroke-width:4.37696791"
   id="g10"
   transform="matrix(0.22846868,0,0,0.22846868,-0.8762161,-25.533875)">
	<path
   class="st1"
   d="m 418,246.3 c 0,9.2 -7.2,14.2 -16.8,14.2 v 0 c -9.4,0 -15.6,-4.5 -18.5,-10.4 l 8.3,-4.8 c 2.2,3.5 5,6.2 10,6.2 4.2,0 6.9,-2.1 6.9,-5 0,-3.5 -2.8,-4.7 -7.4,-6.8 l -2.5,-1.1 c -7.3,-3.1 -12.2,-7.1 -12.2,-15.3 0,-7.6 5.8,-13.4 14.9,-13.4 6.5,0 11.1,2.3 14.4,8.1 l -7.9,5.1 c -1.7,-3.1 -3.6,-4.4 -6.6,-4.4 -2.9,0 -4.9,1.9 -4.9,4.4 0,3 1.9,4.3 6.3,6.2 l 2.5,1.1 c 8.7,3.7 13.5,7.5 13.5,15.9 z"
   id="path6"
   inkscape:connector-curvature="0"
   style="fill:#3f3749;stroke-width:4.37696791" />
	<path
   class="st1"
   d="m 377.2,210.5 v 34.7 c 0,10.5 -6.2,15.3 -15.2,15.3 -8.1,0 -12.8,-4.2 -15.3,-9.3 l 8.3,-5 c 1.6,2.8 3,5.2 6.6,5.2 3.3,0 5.5,-1.3 5.5,-6.4 v -34.6 h 10.1 z"
   id="path8"
   inkscape:connector-curvature="0"
   style="fill:#3f3749;stroke-width:4.37696791" />
</g><g
   style="stroke-width:4.37696791;fill:#1a1a1a"
   id="g28"
   transform="matrix(0.22846868,0,0,0.22846868,-0.8762161,-25.533875)">
	<path
   class="st2"
   d="m 324.4,252.9 c 0.1,2.3 -0.5,4.7 -1.7,6.7 v 0 c -1.1,1.8 -2.6,3.3 -4.4,4.3 -1.9,1.1 -4,1.9 -6.2,2.3 -2.2,0.4 -4.5,0.7 -6.8,0.7 -2.4,0 -4.8,-0.3 -7.1,-0.8 -2.1,-0.5 -4.2,-1.3 -6,-2.6 -1.7,-1.2 -3.2,-2.8 -4.2,-4.7 -1.1,-2.2 -1.7,-4.6 -1.7,-7.1 h 7.4 c 0,1.4 0.4,2.9 1.1,4.1 0.7,1.1 1.6,2 2.7,2.7 1.2,0.7 2.5,1.2 3.8,1.4 1.4,0.3 2.9,0.4 4.4,0.4 1.2,0 2.4,-0.1 3.6,-0.3 1.2,-0.2 2.4,-0.5 3.5,-1 1,-0.4 1.9,-1.1 2.6,-2 0.7,-1 1.1,-2.2 1.1,-3.4 0.1,-1.7 -0.7,-3.3 -2.1,-4.3 -1.7,-1.1 -3.5,-1.9 -5.4,-2.4 -2.1,-0.6 -4.5,-1.2 -7.1,-1.6 -2.4,-0.5 -4.8,-1.2 -7.1,-2.1 -2.1,-0.8 -3.9,-2.1 -5.4,-3.8 -1.5,-1.9 -2.3,-4.3 -2.1,-6.8 -0.1,-2 0.5,-4.1 1.5,-5.8 1,-1.6 2.3,-2.9 3.9,-4 1.6,-1 3.5,-1.8 5.4,-2.3 1.9,-0.5 3.9,-0.7 5.9,-0.7 2.4,0 4.7,0.2 7,0.6 2,0.4 3.9,1.2 5.7,2.3 1.7,1.1 3,2.6 4,4.3 1.1,2.1 1.7,4.4 1.7,6.8 H 315 c -0.1,-1.3 -0.4,-2.5 -1.1,-3.6 -0.6,-0.9 -1.5,-1.7 -2.4,-2.3 -1,-0.6 -2.1,-1 -3.2,-1.3 -1.2,-0.3 -2.4,-0.4 -3.6,-0.4 -1.1,0 -2.2,0.1 -3.3,0.3 -1.1,0.2 -2.1,0.5 -3.1,0.9 -0.9,0.4 -1.6,1 -2.3,1.7 -0.6,0.8 -0.9,1.8 -0.9,2.8 0,1.2 0.5,2.4 1.3,3.2 1,0.9 2.2,1.7 3.4,2.1 1.5,0.6 3.1,1 4.7,1.4 1.7,0.4 3.5,0.8 5.2,1.2 1.7,0.4 3.7,0.9 5.4,1.5 1.7,0.5 3.2,1.3 4.7,2.3 1.3,0.9 2.5,2.2 3.3,3.6 0.9,2 1.4,3.9 1.3,5.7 z"
   id="path12"
   inkscape:connector-curvature="0"
   style="fill:#1a1a1a;stroke-width:4.37696791" />
	<path
   class="st2"
   d="m 281.1,252.9 c 0.1,2.3 -0.5,4.7 -1.7,6.7 v 0 c -1.1,1.8 -2.6,3.3 -4.4,4.3 -1.9,1.1 -4,1.9 -6.2,2.3 -2.2,0.4 -4.5,0.7 -6.8,0.7 -2.4,0 -4.8,-0.3 -7.1,-0.8 -2.1,-0.5 -4.2,-1.3 -6,-2.6 -1.7,-1.2 -3.2,-2.8 -4.2,-4.7 -1.1,-2.2 -1.7,-4.6 -1.7,-7.1 h 7.4 c 0,1.4 0.4,2.9 1.1,4.1 0.7,1.1 1.6,2 2.7,2.7 1.2,0.7 2.5,1.2 3.8,1.4 1.4,0.3 2.9,0.4 4.4,0.4 1.2,0 2.4,-0.1 3.7,-0.3 1.2,-0.2 2.4,-0.5 3.5,-1 1,-0.4 1.9,-1.1 2.6,-2 0.7,-1 1.1,-2.2 1.1,-3.4 0.1,-1.7 -0.7,-3.3 -2.1,-4.3 -1.7,-1.1 -3.5,-1.9 -5.4,-2.4 -2.1,-0.6 -4.5,-1.2 -7.1,-1.6 -2.4,-0.5 -4.8,-1.2 -7.1,-2.1 -2.1,-0.8 -3.9,-2.1 -5.4,-3.8 -1.5,-1.9 -2.3,-4.3 -2.1,-6.8 -0.1,-2 0.5,-4.1 1.5,-5.8 1,-1.6 2.3,-2.9 3.9,-4 1.6,-1 3.5,-1.8 5.4,-2.3 1.9,-0.5 3.9,-0.7 5.9,-0.7 2.4,0 4.7,0.2 7,0.6 2,0.4 3.9,1.2 5.7,2.3 1.7,1.1 3,2.6 4,4.3 1.1,2.1 1.6,4.4 1.7,6.8 h -7.4 c -0.1,-2.5 -1.4,-4.7 -3.6,-5.9 -1,-0.6 -2.1,-1 -3.2,-1.3 -1.2,-0.3 -2.4,-0.4 -3.6,-0.4 -1.1,0 -2.2,0.1 -3.3,0.3 -1.1,0.2 -2.1,0.5 -3.1,0.9 -0.9,0.4 -1.6,1 -2.3,1.7 -0.6,0.8 -0.9,1.8 -0.9,2.8 0,1.2 0.5,2.4 1.3,3.2 1,0.9 2.2,1.7 3.4,2.1 1.5,0.6 3.1,1 4.7,1.4 1.7,0.4 3.5,0.8 5.2,1.2 1.7,0.4 3.7,0.9 5.4,1.5 1.7,0.5 3.2,1.3 4.7,2.3 1.3,0.9 2.5,2.2 3.3,3.6 0.9,2 1.3,3.9 1.3,5.7 z"
   id="path14"
   inkscape:connector-curvature="0"
   style="fill:#1a1a1a;stroke-width:4.37696791" />
	<path
   class="st2"
   d="m 237.5,237.1 c -0.6,-2.9 -1.7,-5.8 -3.3,-8.3 -1.6,-2.6 -3.8,-4.7 -6.3,-6.3 -3,-1.7 -6.5,-2.6 -9.9,-2.5 -2.9,0 -5.8,0.6 -8.5,1.7 -2.5,1.1 -4.8,2.8 -6.7,4.8 -1.9,2.2 -3.4,4.7 -4.4,7.4 -1.1,3 -1.6,6.2 -1.6,9.4 0.1,3.2 0.6,6.4 1.5,9.5 0.8,2.8 2.2,5.3 4,7.5 1.8,2.1 4.1,3.8 6.6,4.9 3,1.2 6.1,1.8 9.3,1.7 4.5,0.2 9,-1.2 12.7,-3.8 3.3,-2.6 5.5,-6.4 6.5,-11.4 h -7.3 c -0.4,2.6 -1.8,5 -3.9,6.6 -2.3,1.5 -5,2.3 -7.7,2.1 -2.2,0.1 -4.3,-0.3 -6.3,-1.2 -3.4,-1.5 -5.9,-4.4 -6.9,-7.9 -0.5,-1.8 -0.8,-3.7 -0.7,-5.6 h 33.6 c 0.1,-2.9 -0.2,-5.8 -0.7,-8.6 z m -7.1,2.1 h -25.8 v 0 c 0.1,-1.2 0.3,-2.5 0.7,-3.7 0.1,-0.4 0.3,-0.8 0.4,-1.2 0.6,-1.5 1.5,-2.9 2.6,-4 1.1,-1.2 2.5,-2.1 4,-2.7 1.6,-0.7 3.4,-1 5.2,-1 0.7,0 1.4,0 2.2,0.2 0.2,0 0.3,0.1 0.5,0.1 0.4,0.1 0.8,0.2 1.2,0.3 0.3,0.1 0.5,0.2 0.8,0.3 0.2,0 0.3,0.1 0.5,0.2 0.2,0.1 0.4,0.2 0.6,0.3 0.3,0.2 0.7,0.3 1,0.5 0,0 0,0 0.1,0.1 0.2,0.1 0.3,0.2 0.5,0.3 0,0 0,0 0.1,0.1 0.2,0.1 0.4,0.3 0.7,0.5 0.4,0.3 0.8,0.6 1.1,1 0.2,0.2 0.3,0.3 0.4,0.5 0.1,0.1 0.2,0.2 0.2,0.3 0.1,0.1 0.2,0.3 0.3,0.4 0.1,0.1 0.1,0.2 0.2,0.2 v 0 c 0.1,0.2 0.2,0.3 0.3,0.5 v 0 c 0.5,0.7 0.9,1.4 1.2,2.1 0.6,1.4 1,2.8 1.1,4.3 -0.1,0 -0.1,0.2 -0.1,0.4 z"
   id="path16"
   inkscape:connector-curvature="0"
   style="fill:#1a1a1a;stroke-width:4.37696791" />
	<path
   class="st2"
   d="m 195.3,220.1 -0.1,7.8 c -2.5,-0.1 -5.1,0.4 -7.5,1.2 -2,0.7 -3.7,1.9 -5,3.6 -1.3,1.7 -2.3,3.6 -2.8,5.7 -0.6,2.5 -0.9,5.1 -0.9,7.7 V 266 h -7.4 v -44.8 h 6.9 v 9.5 h 0.2 c 1.4,-3.2 3.7,-6 6.6,-8.1 3.1,-1.9 6.5,-2.8 10,-2.5 z"
   id="path18"
   inkscape:connector-curvature="0"
   style="fill:#1a1a1a;stroke-width:4.37696791" />
	<polygon
   class="st2"
   points="66.8,259 66.8,265.9 23.8,265.9 23.8,204 66.5,204 66.5,211 32,211 32,230.6 64.2,230.6 64.2,237.6 32.1,237.6 32.1,259 "
   id="polygon20"
   style="fill:#1a1a1a;stroke-width:4.37696791" />
	<polygon
   class="st2"
   points="114.1,265.9 104.7,265.9 92.2,247.4 79.7,265.9 70.8,265.9 87.6,242.4 71.9,221.1 81.4,221.1 92.1,236.8 103.3,221.1 112.1,221.1 96.8,241.7 "
   id="polygon22"
   style="fill:#1a1a1a;stroke-width:4.37696791" />
	<g
   style="stroke-width:4.37696791;fill:#1a1a1a"
   id="g26">
		<path
   class="st2"
   d="m 161.8,234.8 c -0.8,-2.7 -2.1,-5.3 -3.9,-7.5 -1.7,-2.2 -3.9,-4 -6.4,-5.2 -2.8,-1.3 -5.9,-2 -9.1,-1.9 -2.9,0 -5.9,0.5 -8.6,1.7 -2.5,1 -4.5,3 -5.7,5.4 H 128 v -6.1 h -7.4 v 61.9 H 128 V 260 h 0.2 c 0.8,1.3 1.8,2.4 3,3.3 1.2,0.9 2.4,1.6 3.8,2.1 1.3,0.5 2.7,0.9 4,1.1 1.2,0.2 2.5,0.3 3.7,0.4 3.1,0.1 6.2,-0.6 9,-1.8 2.5,-1.2 4.7,-2.9 6.4,-5 1.8,-2.2 3,-4.7 3.8,-7.4 0.8,-2.9 1.3,-5.9 1.2,-9 0,-2.9 -0.4,-5.9 -1.3,-8.9 z m -6.4,8.6 c 0,2.2 -0.2,4.3 -0.7,6.4 -0.1,0.7 -0.3,1.4 -0.6,2.1 -0.2,0.6 -0.5,1.2 -0.7,1.7 -0.3,0.6 -0.6,1.1 -0.9,1.7 -1,1.6 -2.4,3 -4.1,3.9 -2,1.1 -4.2,1.6 -6.4,1.5 -2.3,0.1 -4.5,-0.4 -6.5,-1.4 -1.7,-0.9 -3.2,-2.2 -4.4,-3.8 -0.1,-0.1 -0.2,-0.2 -0.2,-0.4 -0.1,-0.1 -0.2,-0.2 -0.2,-0.3 v 0 0 0 0 0 c -0.1,-0.2 -0.2,-0.3 -0.3,-0.5 -0.1,-0.1 -0.1,-0.2 -0.2,-0.4 -0.1,-0.1 -0.1,-0.3 -0.2,-0.4 0,-0.1 -0.1,-0.2 -0.1,-0.2 -0.1,-0.2 -0.2,-0.4 -0.3,-0.7 -0.2,-0.3 -0.3,-0.7 -0.4,-1 -0.2,-0.5 -0.3,-0.9 -0.4,-1.4 -0.5,-2.1 -0.8,-4.2 -0.8,-6.4 0,-2.1 0.2,-4.1 0.7,-6.2 0.1,-0.5 0.2,-1 0.4,-1.4 0.1,-0.2 0.2,-0.5 0.3,-0.8 v -0.1 c 0,-0.1 0.1,-0.2 0.1,-0.4 0.1,-0.2 0.2,-0.5 0.3,-0.7 0,-0.1 0.1,-0.2 0.1,-0.3 0.2,-0.5 0.5,-1 0.9,-1.5 0,-0.1 0.1,-0.1 0.1,-0.2 l 0.1,-0.1 c 2.4,-3.5 6.4,-5.5 10.6,-5.4 2.2,0 4.3,0.4 6.2,1.4 1.7,0.9 3.2,2.2 4.3,3.7 0.1,0.2 0.3,0.4 0.4,0.6 0.2,0.2 0.3,0.5 0.4,0.7 0.1,0.2 0.2,0.4 0.3,0.6 v 0.1 l 0.1,0.1 v 0.1 0.1 c 0,0.1 0.1,0.1 0.1,0.2 0,0.1 0.1,0.2 0.1,0.3 0.1,0.1 0.1,0.3 0.2,0.4 0.1,0.1 0.1,0.3 0.2,0.4 0.1,0.3 0.2,0.6 0.3,0.9 0.1,0.2 0.2,0.5 0.2,0.8 0.7,2.1 1,4.2 1,6.3 z"
   id="path24"
   inkscape:connector-curvature="0"
   style="fill:#1a1a1a;stroke-width:4.37696791" />
	</g>
</g>
</svg>