<?xml version="1.0" encoding="UTF-8" standalone="no"?>
<svg
   xmlns:dc="http://purl.org/dc/elements/1.1/"
   xmlns:cc="http://creativecommons.org/ns#"
   xmlns:rdf="http://www.w3.org/1999/02/22-rdf-syntax-ns#"
   xmlns:svg="http://www.w3.org/2000/svg"
   xmlns="http://www.w3.org/2000/svg"
   xmlns:sodipodi="http://sodipodi.sourceforge.net/DTD/sodipodi-0.dtd"
   xmlns:inkscape="http://www.inkscape.org/namespaces/inkscape"
   width="101px"
   height="101px"
   viewBox="0 0 101 101"
   version="1.1"
   id="svg34"
   sodipodi:docname="jwt.svg"
   inkscape:version="0.92.4 (5da689c313, 2019-01-14)">
  <metadata
     id="metadata38">
    <rdf:RDF>
      <cc:Work
         rdf:about="">
        <dc:format>image/svg+xml</dc:format>
        <dc:type
           rdf:resource="http://purl.org/dc/dcmitype/StillImage" />
      </cc:Work>
    </rdf:RDF>
  </metadata>
  <sodipodi:namedview
     pagecolor="#ffffff"
     bordercolor="#666666"
     borderopacity="1"
     objecttolerance="10"
     gridtolerance="10"
     guidetolerance="10"
     inkscape:pageopacity="0"
     inkscape:pageshadow="2"
     inkscape:window-width="1366"
     inkscape:window-height="715"
     id="namedview36"
     showgrid="false"
     inkscape:zoom="9.3465346"
     inkscape:cx="64.078945"
     inkscape:cy="54.45652"
     inkscape:window-x="-8"
     inkscape:window-y="-8"
     inkscape:window-maximized="1"
     inkscape:current-layer="svg34" />
  <!-- Generator: Sketch 3.3.2 (12043) - http://www.bohemiancoding.com/sketch -->
  <title
     id="title2">Group</title>
  <desc
     id="desc4">Created with Sketch.</desc>
  <defs
     id="defs6" />
  <g
     style="fill:none;fill-rule:evenodd;stroke:none;stroke-width:1"
     id="Shape">
    <g
       id="g28">
      <path
         style="fill:#ffffff;stroke:#cccccc;stroke-opacity:1;stroke-width:0.1;stroke-miterlimit:4;stroke-dasharray:none;fill-opacity:1"
         inkscape:connector-curvature="0"
         id="path8"
         d="M 57.8,27.2 57.7,0.3 h -15 l 0.1,26.9 7.5,10.3 z" />
      <path
         style="fill:#ffffff;stroke:#cccccc;stroke-opacity:1;stroke-width:0.1;stroke-miterlimit:4;stroke-dasharray:none"
         inkscape:connector-curvature="0"
         id="path10"
         d="m 42.8,73.3 v 27 h 15 v -27 L 50.3,63 Z" />
      <path
         style="fill:#00f2e6"
         inkscape:connector-curvature="0"
         id="path12"
         d="M 57.8,73.3 73.6,95.1 85.7,86.3 69.9,64.5 57.8,60.6 Z" />
      <path
         style="fill:#00f2e6"
         inkscape:connector-curvature="0"
         id="path14"
         d="M 42.8,27.2 26.9,5.4 14.8,14.2 30.6,36 42.8,39.9 Z" />
      <path
         style="fill:#00b9f1"
         inkscape:connector-curvature="0"
         id="path16"
         d="M 30.6,36 5,27.7 0.4,41.9 26,50.3 l 12.1,-4 z" />
      <path
         style="fill:#00b9f1"
         inkscape:connector-curvature="0"
         id="path18"
         d="m 62.4,54.2 7.5,10.3 25.6,8.3 4.6,-14.2 -25.6,-8.3 z" />
      <path
         style="fill:#d63aff"
         inkscape:connector-curvature="0"
         id="path20"
         d="M 74.5,50.3 100.1,41.9 95.5,27.7 69.9,36 62.4,46.3 Z" />
      <path
         style="fill:#d63aff"
         inkscape:connector-curvature="0"
         id="path22"
         d="M 26,50.3 0.4,58.6 5,72.8 30.6,64.5 38.1,54.2 Z" />
      <path
         style="fill:#fb015b"
         inkscape:connector-curvature="0"
         id="path24"
         d="M 30.6,64.5 14.8,86.3 26.9,95.1 42.8,73.3 V 60.6 Z" />
      <path
         style="fill:#fb015b"
         inkscape:connector-curvature="0"
         id="path26"
         d="M 69.9,36 85.7,14.2 73.6,5.4 57.8,27.2 v 12.7 z" />
    </g>
  </g>
</svg>
