<?xml version="1.0" encoding="UTF-8" standalone="no"?>
<svg
   xmlns:dc="http://purl.org/dc/elements/1.1/"
   xmlns:cc="http://creativecommons.org/ns#"
   xmlns:rdf="http://www.w3.org/1999/02/22-rdf-syntax-ns#"
   xmlns:svg="http://www.w3.org/2000/svg"
   xmlns="http://www.w3.org/2000/svg"
   xmlns:sodipodi="http://sodipodi.sourceforge.net/DTD/sodipodi-0.dtd"
   xmlns:inkscape="http://www.inkscape.org/namespaces/inkscape"
   class="h-30"
   height="50"
   viewBox="0 0 100 50"
   version="1.1"
   id="svg26"
   sodipodi:docname="mongo.svg"
   inkscape:version="0.92.4 (5da689c313, 2019-01-14)"
   width="100">
  <metadata
     id="metadata32">
    <rdf:RDF>
      <cc:Work
         rdf:about="">
        <dc:format>image/svg+xml</dc:format>
        <dc:type
           rdf:resource="http://purl.org/dc/dcmitype/StillImage" />
        <dc:title />
      </cc:Work>
    </rdf:RDF>
  </metadata>
  <defs
     id="defs30" />
  <sodipodi:namedview
     pagecolor="#ffffff"
     bordercolor="#666666"
     borderopacity="1"
     objecttolerance="10"
     gridtolerance="10"
     guidetolerance="10"
     inkscape:pageopacity="0"
     inkscape:pageshadow="2"
     inkscape:window-width="1366"
     inkscape:window-height="715"
     id="namedview28"
     showgrid="false"
     inkscape:zoom="5.68"
     inkscape:cx="40.791991"
     inkscape:cy="35.097322"
     inkscape:window-x="-8"
     inkscape:window-y="-8"
     inkscape:window-maximized="1"
     inkscape:current-layer="svg26"
     showguides="true"
     inkscape:guide-bbox="true">
    <sodipodi:guide
       position="-105.6338,84.859155"
       orientation="1,0"
       id="guide4553"
       inkscape:locked="false" />
  </sodipodi:namedview>
  <g
     id="g848">
    <path
       d="M 11.71,22.41 C 10.31,16.33 7.39,14.71 6.65,13.57 6.34,13.06 6.07,12.54 5.84,12 5.8,12.54 5.73,12.88 5.26,13.29 4.32,14.11 0.35,17.3 0.01,24.21 -0.3,30.65 4.82,34.62 5.5,35.03 c 0.52,0.25 1.15,0 1.46,-0.23 2.47,-1.67 5.84,-6.11 4.75,-12.39"
       id="path2"
       inkscape:connector-curvature="0"
       style="fill:#10aa50" />
    <path
       d="m 5.95,31.5 c -0.13,1.58 -0.23,2.5 -0.57,3.4 0,0 0.23,1.51 0.38,3.1 H 6.32 C 6.45,36.88 6.65,35.76 6.92,34.66 6.21,34.33 5.98,32.89 5.95,31.5 Z"
       id="path4"
       inkscape:connector-curvature="0"
       style="fill:#b8c4c2" />
    <path
       d="m 7.03,34.75 v 0 C 6.34,34.43 6.14,32.94 6.11,31.55 6.28,29.25 6.33,26.95 6.26,24.64 6.22,23.44 6.28,13.46 5.96,12 c 0.22,0.49 0.47,0.97 0.74,1.44 0.74,1.15 3.63,2.77 5.01,8.88 1.08,6.29 -2.24,10.74 -4.68,12.43 z"
       id="path6"
       inkscape:connector-curvature="0"
       style="fill:#12924f" />
    <path
       d="m 98.46,32.65 c -0.85,0 -1.53,-0.68 -1.54,-1.53 0,-0.84 0.68,-1.52 1.53,-1.53 0.84,-0.01 1.54,0.66 1.55,1.51 0.01,0.41 -0.15,0.8 -0.44,1.1 -0.29,0.29 -0.69,0.45 -1.1,0.45 z m 0,-2.92 c -0.57,-0.01 -1.08,0.33 -1.3,0.85 -0.22,0.52 -0.1,1.12 0.3,1.52 0.4,0.4 1,0.52 1.52,0.31 0.53,-0.22 0.87,-0.72 0.87,-1.29 0.01,-0.37 -0.13,-0.73 -0.4,-0.99 -0.26,-0.26 -0.62,-0.41 -0.99,-0.4 z m 0.37,2.35 -0.39,-0.85 h -0.32 v 0.85 h -0.24 v -1.93 h 0.58 c 0.42,0 0.6,0.18 0.6,0.54 0,0.28 -0.13,0.46 -0.38,0.52 l 0.41,0.87 z m -0.71,-1.05 h 0.34 c 0.27,0 0.38,-0.09 0.38,-0.34 0,-0.24 -0.1,-0.33 -0.41,-0.33 h -0.31 z"
       id="path8"
       inkscape:connector-curvature="0"
       style="fill:#1a1a1a" />
    <path
       d="m 75.97,31.27 c 0.41,0.32 1.23,0.46 1.95,0.46 0.93,0 1.84,-0.18 2.73,-0.98 0.91,-0.83 1.54,-2.09 1.54,-4.11 0,-1.93 -0.74,-3.51 -2.25,-4.43 -0.86,-0.53 -1.97,-0.74 -3.23,-0.74 -0.36,0 -0.74,0.01 -0.95,0.11 -0.09,0.07 -0.15,0.17 -0.17,0.27 -0.04,0.35 -0.04,2.98 -0.04,4.53 0,1.59 0,3.81 0.04,4.08 0.02,0.24 0.13,0.64 0.38,0.81 M 72.1,20.6 c 0.33,0 1.58,0.06 2.17,0.06 1.09,0 1.84,-0.06 3.88,-0.06 1.71,0 3.14,0.46 4.17,1.34 1.25,1.08 1.91,2.58 1.91,4.4 0,2.59 -1.18,4.08 -2.37,4.93 -1.18,0.88 -2.72,1.38 -4.91,1.38 -1.16,0 -3.16,-0.04 -4.83,-0.06 h -0.03 c -0.08,-0.15 0.14,-0.75 0.27,-0.77 0.46,-0.05 0.58,-0.07 0.79,-0.15 0.35,-0.15 0.43,-0.33 0.47,-0.96 0.06,-1.19 0.04,-2.61 0.04,-4.22 0,-1.15 0.02,-3.39 -0.02,-4.1 -0.06,-0.6 -0.31,-0.75 -0.82,-0.87 -0.36,-0.07 -0.72,-0.13 -1.09,-0.17 -0.03,-0.11 0.26,-0.63 0.36,-0.75"
       id="path10"
       inkscape:connector-curvature="0"
       style="fill:#1a1a1a" />
    <path
       d="m 89,21.54 c -0.07,0.02 -0.17,0.21 -0.17,0.31 -0.02,0.69 -0.04,2.49 -0.04,3.73 0.01,0.05 0.05,0.09 0.1,0.1 0.25,0.02 0.87,0.04 1.39,0.04 0.73,0 1.15,-0.1 1.39,-0.21 0.61,-0.31 0.9,-0.98 0.9,-1.71 0,-1.67 -1.16,-2.3 -2.88,-2.3 -0.23,0 -0.46,0.01 -0.69,0.04 m 4.38,7.66 c 0,-1.68 -1.24,-2.64 -3.49,-2.64 -0.1,0 -0.82,-0.02 -0.99,0.02 -0.05,0.02 -0.11,0.05 -0.11,0.09 0,1.21 -0.02,3.14 0.04,3.91 0.04,0.32 0.27,0.78 0.56,0.92 0.3,0.17 1,0.21 1.48,0.21 1.33,0 2.51,-0.75 2.51,-2.51 m -7.86,-8.6 c 0.17,0 0.69,0.06 2,0.06 1.23,0 2.23,-0.04 3.43,-0.04 1.48,0 3.53,0.54 3.53,2.76 0,1.09 -0.77,1.97 -1.78,2.39 -0.05,0.02 -0.05,0.06 0,0.08 1.43,0.36 2.68,1.24 2.68,2.93 0,1.65 -1.02,2.68 -2.5,3.33 -0.91,0.4 -2.03,0.54 -3.16,0.54 -0.87,0 -3.2,-0.09 -4.49,-0.08 -0.13,-0.06 0.12,-0.67 0.24,-0.77 0.3,0 0.59,-0.05 0.87,-0.13 0.47,-0.12 0.52,-0.27 0.58,-0.96 0.04,-0.59 0.04,-2.72 0.04,-4.23 0,-2.07 0.02,-3.46 0,-4.15 -0.02,-0.54 -0.21,-0.71 -0.58,-0.81 -0.29,-0.06 -0.77,-0.11 -1.16,-0.17 -0.09,-0.1 0.2,-0.67 0.3,-0.75"
       id="path12"
       inkscape:connector-curvature="0"
       style="fill:#1a1a1a" />
    <path
       d="m 15.95,32.65 c -0.05,-0.13 -0.07,-0.26 -0.06,-0.39 0,-0.09 0.02,-0.18 0.06,-0.26 0.25,-0.04 0.5,-0.09 0.75,-0.15 0.35,-0.09 0.48,-0.28 0.5,-0.72 0.05,-1.04 0.06,-2.98 0.04,-4.35 v -0.04 c 0,-0.15 0,-0.35 -0.19,-0.49 -0.32,-0.2 -0.67,-0.36 -1.03,-0.46 -0.16,-0.05 -0.26,-0.13 -0.25,-0.23 0,-0.1 0.11,-0.22 0.32,-0.26 0.57,-0.06 2.05,-0.41 2.63,-0.68 0.06,0.08 0.09,0.17 0.08,0.27 0,0.06 -0.01,0.13 -0.02,0.19 -0.02,0.19 -0.03,0.41 -0.03,0.63 0,0.06 0.04,0.1 0.09,0.12 0.05,0.02 0.11,0 0.15,-0.03 1.11,-0.87 2.1,-1.18 2.61,-1.18 0.84,0 1.49,0.4 1.99,1.22 0.03,0.04 0.07,0.07 0.12,0.07 0.04,0 0.08,-0.02 0.1,-0.06 1.02,-0.77 2.03,-1.23 2.71,-1.23 1.59,0 2.55,1.19 2.55,3.19 0,0.57 -0.01,1.3 -0.01,1.98 -0.01,0.6 -0.01,1.16 -0.01,1.54 0,0.1 0.12,0.36 0.31,0.41 0.24,0.11 0.57,0.17 1,0.25 h 0.02 c 0.03,0.11 -0.04,0.56 -0.1,0.65 -0.11,0 -0.26,-0.01 -0.44,-0.02 -0.33,-0.02 -0.79,-0.04 -1.31,-0.04 -1.07,0 -1.62,0.02 -2.15,0.05 -0.04,-0.13 -0.05,-0.55 0,-0.64 0.21,-0.04 0.43,-0.09 0.65,-0.15 0.33,-0.11 0.43,-0.26 0.45,-0.71 0.01,-0.32 0.07,-3.12 -0.04,-3.78 -0.1,-0.69 -0.62,-1.5 -1.76,-1.5 -0.42,0 -1.1,0.17 -1.75,0.67 -0.04,0.04 -0.07,0.1 -0.07,0.16 v 0.01 c 0.08,0.36 0.08,0.78 0.08,1.42 0,0.36 0,0.74 0,1.12 -0.01,0.77 -0.01,1.5 0,2.06 0,0.37 0.23,0.46 0.41,0.53 0.1,0.03 0.18,0.04 0.26,0.06 0.15,0.04 0.31,0.08 0.55,0.12 0.03,0.16 0.03,0.32 -0.01,0.48 -0.01,0.06 -0.04,0.12 -0.07,0.17 -0.59,-0.02 -1.2,-0.04 -2.07,-0.04 -0.26,0 -0.7,0.01 -1.08,0.02 -0.31,0.01 -0.6,0.02 -0.77,0.02 -0.04,-0.11 -0.06,-0.22 -0.06,-0.34 0,-0.11 0.02,-0.22 0.07,-0.31 l 0.23,-0.04 c 0.21,-0.04 0.38,-0.07 0.55,-0.11 0.29,-0.1 0.4,-0.25 0.42,-0.62 0.05,-0.86 0.1,-3.33 -0.02,-3.94 -0.21,-1 -0.78,-1.5 -1.69,-1.5 -0.53,0 -1.2,0.26 -1.75,0.67 -0.11,0.1 -0.17,0.25 -0.16,0.39 0,0.3 0,0.65 0,1.02 0,1.24 -0.01,2.79 0.02,3.46 0.02,0.2 0.09,0.45 0.48,0.53 0.08,0.03 0.23,0.05 0.4,0.08 0.1,0.02 0.2,0.04 0.31,0.06 0.04,0.21 0.02,0.44 -0.05,0.65 -0.17,0 -0.38,-0.01 -0.62,-0.02 -0.36,-0.02 -0.82,-0.04 -1.34,-0.04 -0.61,0 -1.03,0.02 -1.37,0.04 -0.23,0.01 -0.43,0.02 -0.63,0.02"
       id="path14"
       inkscape:connector-curvature="0"
       style="fill:#1a1a1a" />
    <path
       d="m 35.36,25.42 c -0.32,-0.01 -0.64,0.08 -0.92,0.26 -0.67,0.4 -1.01,1.2 -1.01,2.39 0,2.21 1.12,3.76 2.73,3.76 0.43,0.01 0.85,-0.14 1.18,-0.42 0.49,-0.39 0.76,-1.21 0.76,-2.34 0,-2.18 -1.1,-3.65 -2.74,-3.65 m 0.31,7.23 c -2.9,0 -3.94,-2.11 -3.94,-4.07 0,-1.38 0.57,-2.45 1.69,-3.2 0.79,-0.48 1.69,-0.74 2.62,-0.76 2.22,0 3.77,1.57 3.77,3.82 0,1.54 -0.62,2.74 -1.79,3.5 -0.56,0.34 -1.54,0.71 -2.35,0.71"
       id="path16"
       inkscape:connector-curvature="0"
       style="fill:#1a1a1a" />
    <path
       d="m 65.17,25.42 c -0.33,-0.01 -0.65,0.08 -0.92,0.26 -0.68,0.4 -1.02,1.2 -1.02,2.39 0,2.21 1.12,3.76 2.73,3.76 0.44,0.01 0.86,-0.14 1.19,-0.42 0.49,-0.39 0.75,-1.21 0.75,-2.34 0,-2.18 -1.09,-3.65 -2.73,-3.65 m 0.31,7.23 c -2.91,0 -3.94,-2.11 -3.94,-4.07 0,-1.38 0.57,-2.45 1.69,-3.2 0.79,-0.48 1.69,-0.74 2.62,-0.76 2.22,0 3.77,1.57 3.77,3.82 0,1.54 -0.62,2.74 -1.79,3.5 -0.57,0.34 -1.54,0.71 -2.35,0.71"
       id="path18"
       inkscape:connector-curvature="0"
       style="fill:#1a1a1a" />
    <path
       d="m 55.3,25.35 c -0.9,0 -1.49,0.71 -1.49,1.79 0,1.08 0.5,2.37 1.92,2.37 0.25,0 0.69,-0.1 0.91,-0.34 0.33,-0.3 0.55,-0.91 0.55,-1.56 0,-1.41 -0.7,-2.26 -1.88,-2.26 m -0.12,7.49 c -0.26,0 -0.51,0.06 -0.73,0.18 -0.72,0.45 -1.06,0.9 -1.06,1.42 0,0.48 0.2,0.87 0.61,1.22 0.51,0.42 1.19,0.62 2.08,0.62 1.77,0 2.55,-0.93 2.55,-1.84 0,-0.64 -0.32,-1.07 -1,-1.31 -0.52,-0.19 -1.39,-0.29 -2.45,-0.29 m 0.12,4.4 c -1.06,0 -1.82,-0.22 -2.47,-0.71 -0.63,-0.48 -0.92,-1.19 -0.92,-1.68 0.01,-0.31 0.13,-0.62 0.35,-0.85 0.18,-0.2 0.61,-0.59 1.6,-1.25 0.03,-0.01 0.05,-0.04 0.05,-0.08 0,-0.03 -0.03,-0.07 -0.06,-0.08 -0.82,-0.3 -1.06,-0.8 -1.14,-1.07 0,-0.01 0,-0.03 0,-0.04 -0.03,-0.11 -0.05,-0.21 0.1,-0.31 0.11,-0.08 0.29,-0.19 0.49,-0.3 0.27,-0.15 0.54,-0.32 0.79,-0.5 0.02,-0.03 0.04,-0.07 0.03,-0.11 -0.01,-0.04 -0.03,-0.07 -0.07,-0.09 -1.2,-0.39 -1.8,-1.27 -1.8,-2.6 -0.01,-0.84 0.4,-1.64 1.11,-2.13 0.48,-0.37 1.69,-0.82 2.48,-0.82 h 0.05 c 0.8,0.02 1.26,0.18 1.89,0.41 0.36,0.13 0.74,0.19 1.12,0.17 0.67,0 0.96,-0.2 1.22,-0.44 0.04,0.1 0.06,0.22 0.06,0.33 0.02,0.28 -0.06,0.55 -0.22,0.78 -0.13,0.19 -0.46,0.32 -0.75,0.32 -0.03,0 -0.06,0 -0.09,0 -0.16,-0.01 -0.31,-0.04 -0.46,-0.08 l -0.08,0.03 c -0.02,0.03 -0.01,0.07 0.01,0.12 0.01,0.01 0.01,0.02 0.01,0.03 0.06,0.24 0.1,0.48 0.11,0.73 0,1.39 -0.56,2 -1.17,2.45 -0.58,0.43 -1.28,0.7 -2.02,0.76 v 0 c -0.01,0 -0.09,0.01 -0.23,0.02 -0.09,0.01 -0.21,0.02 -0.23,0.02 h -0.02 c -0.13,0.04 -0.47,0.2 -0.47,0.5 0,0.24 0.15,0.55 0.9,0.61 l 0.48,0.03 c 0.98,0.07 2.21,0.15 2.79,0.34 0.79,0.27 1.31,1.01 1.29,1.82 0,1.25 -0.91,2.43 -2.43,3.15 -0.72,0.33 -1.51,0.51 -2.3,0.5"
       id="path20"
       inkscape:connector-curvature="0"
       style="fill:#1a1a1a" />
    <path
       d="m 50.73,31.89 c -0.43,-0.06 -0.74,-0.12 -1.1,-0.29 -0.08,-0.07 -0.12,-0.16 -0.14,-0.27 -0.04,-0.58 -0.04,-2.29 -0.04,-3.41 0,-0.91 -0.15,-1.71 -0.54,-2.28 -0.46,-0.64 -1.12,-1.02 -1.97,-1.02 -0.75,0 -1.75,0.51 -2.58,1.21 -0.02,0.02 -0.15,0.14 -0.15,-0.05 0.01,-0.18 0.04,-0.56 0.05,-0.8 0.02,-0.13 -0.03,-0.27 -0.12,-0.36 -0.54,0.27 -2.06,0.63 -2.63,0.69 -0.41,0.08 -0.51,0.47 -0.07,0.61 v 0 c 0.35,0.09 0.69,0.24 1,0.43 0.17,0.13 0.15,0.32 0.15,0.47 0.02,1.28 0.02,3.23 -0.04,4.29 -0.02,0.42 -0.13,0.57 -0.44,0.65 l 0.03,-0.01 c -0.24,0.06 -0.48,0.1 -0.72,0.13 -0.09,0.1 -0.09,0.65 0,0.76 0.2,0 1.18,-0.05 1.99,-0.05 1.12,0 1.7,0.05 1.99,0.05 0.11,-0.13 0.15,-0.64 0.07,-0.76 -0.26,-0.01 -0.53,-0.05 -0.79,-0.11 -0.31,-0.08 -0.38,-0.23 -0.4,-0.57 -0.04,-0.89 -0.04,-2.79 -0.04,-4.08 0,-0.36 0.09,-0.53 0.21,-0.63 0.39,-0.34 1.02,-0.57 1.58,-0.57 0.54,0 0.91,0.17 1.18,0.4 0.31,0.27 0.51,0.66 0.55,1.07 0.08,0.72 0.06,2.17 0.06,3.42 0,0.68 -0.06,0.85 -0.31,0.93 -0.12,0.05 -0.43,0.11 -0.79,0.15 -0.12,0.11 -0.08,0.64 0,0.76 0.5,0 1.08,-0.06 1.93,-0.06 1.06,0 1.73,0.06 2,0.06 0.12,-0.14 0.16,-0.63 0.08,-0.76"
       id="path22"
       inkscape:connector-curvature="0"
       style="fill:#1a1a1a" />
  </g>
</svg>
