<?xml version="1.0" encoding="UTF-8" standalone="no"?>
<svg
   xmlns:dc="http://purl.org/dc/elements/1.1/"
   xmlns:cc="http://creativecommons.org/ns#"
   xmlns:rdf="http://www.w3.org/1999/02/22-rdf-syntax-ns#"
   xmlns:svg="http://www.w3.org/2000/svg"
   xmlns="http://www.w3.org/2000/svg"
   xmlns:sodipodi="http://sodipodi.sourceforge.net/DTD/sodipodi-0.dtd"
   xmlns:inkscape="http://www.inkscape.org/namespaces/inkscape"
   width="100"
   height="50"
   version="1.2"
   viewBox="0 0 74.999954 37.500069"
   id="svg128"
   sodipodi:docname="node.svg"
   inkscape:version="0.92.4 (5da689c313, 2019-01-14)">
  <metadata
     id="metadata132">
    <rdf:RDF>
      <cc:Work
         rdf:about="">
        <dc:format>image/svg+xml</dc:format>
        <dc:type
           rdf:resource="http://purl.org/dc/dcmitype/StillImage" />
        <dc:title></dc:title>
      </cc:Work>
    </rdf:RDF>
  </metadata>
  <sodipodi:namedview
     pagecolor="#ffffff"
     bordercolor="#666666"
     borderopacity="1"
     objecttolerance="10"
     gridtolerance="10"
     guidetolerance="10"
     inkscape:pageopacity="1"
     inkscape:pageshadow="2"
     inkscape:window-width="1366"
     inkscape:window-height="715"
     id="namedview130"
     showgrid="false"
     inkscape:zoom="8.5501592"
     inkscape:cx="44.077974"
     inkscape:cy="19.958828"
     inkscape:window-x="-8"
     inkscape:window-y="-8"
     inkscape:window-maximized="1"
     inkscape:current-layer="svg128" />
  <defs
     id="defs106">
    <linearGradient
       id="b"
       x1="-0.34799999"
       x2="1.251"
       gradientTransform="matrix(-251.19914,520.30008,-512.44425,-255.05005,1239.4134,1228.283)"
       gradientUnits="userSpaceOnUse">
      <stop
         offset=".3"
         stop-color="#3E863D"
         id="stop72" />
      <stop
         offset=".5"
         stop-color="#55934F"
         id="stop74" />
      <stop
         offset=".8"
         stop-color="#5AAD45"
         id="stop76" />
    </linearGradient>
    <linearGradient
       id="d"
       x1="-0.456"
       x2="0.58200002"
       gradientTransform="matrix(704.83541,-528.77343,520.78968,715.64059,1084.1005,1501.427)"
       gradientUnits="userSpaceOnUse">
      <stop
         offset=".57"
         stop-color="#3E863D"
         id="stop79" />
      <stop
         offset=".72"
         stop-color="#619857"
         id="stop81" />
      <stop
         offset="1"
         stop-color="#76AC64"
         id="stop83" />
    </linearGradient>
    <linearGradient
       id="f"
       x1="0.043000001"
       x2="0.98400003"
       gradientTransform="matrix(642.87721,0,0,652.73257,804.77987,1462.9481)"
       gradientUnits="userSpaceOnUse">
      <stop
         offset=".16"
         stop-color="#6BBF47"
         id="stop86" />
      <stop
         offset=".38"
         stop-color="#79B461"
         id="stop88" />
      <stop
         offset=".47"
         stop-color="#75AC64"
         id="stop90" />
      <stop
         offset=".7"
         stop-color="#659E5A"
         id="stop92" />
      <stop
         offset=".9"
         stop-color="#3E863D"
         id="stop94" />
    </linearGradient>
    <clipPath
       id="a">
      <path
         d="m 239.03,226.605 -42.13,24.317 a 5.085,5.085 0 0 0 -2.546,4.406 v 48.668 c 0,1.817 0.968,3.496 2.546,4.406 l 42.133,24.336 a 5.1,5.1 0 0 0 5.09,0 l 42.126,-24.336 a 5.096,5.096 0 0 0 2.54,-4.406 v -48.668 c 0,-1.816 -0.97,-3.496 -2.55,-4.406 l -42.12,-24.317 a 5.123,5.123 0 0 0 -5.1,0"
         id="path97"
         inkscape:connector-curvature="0" />
    </clipPath>
    <clipPath
       id="c">
      <path
         d="m 195.398,307.086 c 0.403,0.523 0.907,0.976 1.5,1.316 l 36.14,20.875 6.02,3.46 c 0.9,0.52 1.926,0.74 2.934,0.665 0.336,-0.027 0.672,-0.09 1,-0.183 l 44.434,-81.36 c -0.34,-0.37 -0.738,-0.68 -1.184,-0.94 l -27.586,-15.93 -14.582,-8.39 a 5.318,5.318 0 0 0 -1.32,-0.53 z m 0,0"
         id="path100"
         inkscape:connector-curvature="0" />
    </clipPath>
    <clipPath
       id="e">
      <path
         d="m 241.066,225.953 a 5.14,5.14 0 0 0 -2.035,0.652 l -42.01,24.247 45.3,82.51 c 0.63,-0.09 1.25,-0.3 1.81,-0.624 l 42.13,-24.336 a 5.105,5.105 0 0 0 2.46,-3.476 l -46.18,-78.89 a 5.29,5.29 0 0 0 -1.03,-0.102 c -0.14,0 -0.28,0.007 -0.42,0.02"
         id="path103"
         inkscape:connector-curvature="0" />
    </clipPath>
  </defs>
  <path
     d="m 36.746753,35.640408 c -0.183369,0 -0.365481,-0.04738 -0.526244,-0.138543 L 34.545446,34.52514 c -0.250185,-0.137801 -0.128106,-0.186538 -0.04559,-0.214619 0.333579,-0.115039 0.401275,-0.141015 0.757338,-0.340171 0.03743,-0.02103 0.08641,-0.01361 0.124716,0.0087 l 1.286849,0.752089 c 0.04647,0.02474 0.112407,0.02474 0.155486,0 L 41.841774,31.8786 c 0.04647,-0.02598 0.07661,-0.07917 0.07661,-0.133596 v -5.702518 c 0,-0.0569 -0.03014,-0.107618 -0.07762,-0.136068 L 36.82525,23.056395 c -0.04647,-0.02721 -0.108011,-0.02721 -0.154482,0 l -5.014514,2.850023 c -0.04861,0.02721 -0.0795,0.0804 -0.0795,0.13483 v 5.702519 c 0,0.05443 0.03014,0.10638 0.07787,0.132358 l 1.374012,0.781776 c 0.746034,0.367386 1.201945,-0.06556 1.201945,-0.500979 v -5.628299 c 0,-0.0804 0.06405,-0.142255 0.145691,-0.142255 h 0.635512 c 0.07912,0 0.144434,0.06185 0.144434,0.142255 v 5.630772 c 0,0.979696 -0.542571,1.542525 -1.485792,1.542525 -0.290125,0 -0.518708,0 -1.15673,-0.309247 l -1.316239,-0.747141 a 1.0609026,1.0448844 0 0 1 -0.526243,-0.901765 v -5.702519 c 0,-0.371095 0.200952,-0.717453 0.526243,-0.900527 l 5.022553,-2.853732 c 0.317755,-0.17689 0.739754,-0.17689 1.054999,0 l 5.016271,2.854969 a 1.0585163,1.0425341 0 0 1 0.526245,0.900528 v 5.702518 c 0,0.369859 -0.202208,0.714979 -0.526245,0.900528 l -5.016271,2.853737 a 1.0546228,1.0386995 0 0 1 -0.528756,0.138542"
     id="path108"
     style="fill:#689f63;stroke:#000000;stroke-width:0.03750007;stroke-miterlimit:4;stroke-dasharray:none;stroke-opacity:1"
     inkscape:connector-curvature="0" />
  <path
     d="m 38.296599,31.71099 c -2.195405,0 -2.655712,-0.992561 -2.655712,-1.825053 0,-0.07917 0.06481,-0.142254 0.145314,-0.142254 h 0.648071 c 0.07159,0 0.131876,0.05133 0.143179,0.120978 0.09796,0.650409 0.389345,0.978458 1.716887,0.978458 1.057511,0 1.507142,-0.235276 1.507142,-0.787591 0,-0.317906 -0.128107,-0.554171 -1.770893,-0.712505 -1.374012,-0.133595 -2.223035,-0.43171 -2.223035,-1.514075 0,-0.997012 0.854048,-1.590768 2.284577,-1.590768 1.606362,0 2.402637,0.549224 2.503112,1.729311 a 0.14619281,0.14398549 0 0 1 -0.14569,0.155861 h -0.651839 c -0.06782,0 -0.126852,-0.04701 -0.140667,-0.111329 -0.156994,-0.684055 -0.536291,-0.903002 -1.567428,-0.903002 -1.15422,0 -1.288607,0.395836 -1.288607,0.692713 0,0.359963 0.158251,0.465108 1.715631,0.667975 1.542309,0.201628 2.274529,0.486135 2.274529,1.553657 0,1.07618 -0.911822,1.693437 -2.501857,1.693437 m 6.111463,-6.047637 h 0.168297 c 0.138155,0 0.16453,-0.09525 0.16453,-0.150913 0,-0.145965 -0.101732,-0.145965 -0.158251,-0.145965 h -0.17332 z m -0.204721,-0.467581 h 0.373018 c 0.128107,0 0.379297,0 0.379297,0.282032 0,0.196681 -0.128106,0.237503 -0.204719,0.262242 0.149458,0.0099 0.159505,0.106381 0.179601,0.242449 0.01005,0.08535 0.02637,0.232555 0.05652,0.282034 H 44.74993 c -0.0063,-0.04948 -0.04145,-0.321616 -0.04145,-0.33646 -0.01508,-0.06061 -0.03642,-0.0903 -0.113035,-0.0903 h -0.18965 v 0.427999 h -0.209744 z m -0.448375,0.531904 c 0,0.442843 0.362971,0.801569 0.808834,0.801569 0.449631,0 0.812601,-0.366148 0.812601,-0.801569 0,-0.444078 -0.367995,-0.79662 -0.813858,-0.79662 -0.439583,0 -0.808832,0.347593 -0.808832,0.795383 m 1.778427,0.0037 c 0,0.524482 -0.435814,0.952481 -0.967082,0.952481 -0.5275,0 -0.967084,-0.42305 -0.967084,-0.952481 0,-0.539328 0.449631,-0.952482 0.967084,-0.952482 0.52122,0 0.965826,0.414392 0.965826,0.952482"
     id="path110"
     style="fill:#689f63;stroke:#000000;stroke-width:0.03750007;stroke-miterlimit:4;stroke-dasharray:none;stroke-opacity:1"
     inkscape:connector-curvature="0" />
  <path
     d="m 21.209246,13.327605 c 0,-0.227606 -0.121827,-0.436657 -0.321272,-0.549841 l -5.31971,-3.0145422 a 0.62119382,0.61181464 0 0 0 -0.292386,-0.082877 h -0.05501 c -0.101983,0.00372 -0.202585,0.030924 -0.293892,0.082877 l -5.31946,3.0145422 a 0.64731762,0.63754401 0 0 0 -0.3217749,0.55046 l 0.01168,8.119594 c 0,0.112566 0.05903,0.217711 0.1595059,0.273374 0.097964,0.05938 0.2210475,0.05938 0.3190118,0 l 3.1624872,-1.783737 c 0.199696,-0.11702 0.321524,-0.323844 0.321524,-0.549223 v -3.793226 a 0.64053549,0.63086427 0 0 1 0.320896,-0.547987 l 1.34638,-0.763716 a 0.63877716,0.62913249 0 0 1 0.321524,-0.08511 c 0.110021,0 0.222303,0.02796 0.319514,0.08498 l 1.345752,0.76347 c 0.199194,0.112565 0.321524,0.321617 0.321524,0.547986 v 3.792978 c 0,0.225133 0.12346,0.432946 0.322152,0.549222 l 3.160477,1.782502 a 0.31398798,0.30924719 0 0 0 0.321524,0 0.32252846,0.31765872 0 0 0 0.159254,-0.273375 z m 25.10246,4.227533 c 0,0.05653 -0.03052,0.108855 -0.08038,0.136811 l -1.827159,1.037339 a 0.16101304,0.15858196 0 0 1 -0.160385,0 l -1.82741,-1.037339 c -0.05024,-0.02808 -0.08038,-0.0804 -0.08038,-0.136811 v -2.077646 c 0,-0.05665 0.03014,-0.108856 0.07912,-0.137307 l 1.826154,-1.039069 c 0.05024,-0.02845 0.11178,-0.02845 0.162019,0 l 1.827409,1.039069 c 0.05024,0.02845 0.08038,0.08065 0.08038,0.137307 z m 0.49359,-15.3883871 a 0.32252846,0.31765872 0 0 0 -0.319515,0.00334 c -0.09796,0.056901 -0.1585,0.1608083 -0.1585,0.2733733 v 8.0404268 a 0.2245642,0.22117358 0 0 1 -0.337099,0.191733 L 44.657618,9.9197035 a 0.64154025,0.63185387 0 0 0 -0.642043,0 l -5.321468,3.0248085 a 0.64116347,0.63148277 0 0 0 -0.321524,0.54675 v 6.051349 c 0,0.226369 0.122707,0.434183 0.321524,0.547986 l 5.321468,3.026911 c 0.198691,0.112567 0.443352,0.112567 0.64267,0 l 5.32147,-3.028149 c 0.198439,-0.113802 0.321523,-0.321616 0.321523,-0.547985 V 4.4600061 A 0.64405215,0.63432784 0 0 0 49.970923,3.9070732 Z M 64.525898,15.422816 a 0.64254501,0.63284345 0 0 0 0.319389,-0.546996 v -1.466574 c 0,-0.225627 -0.121828,-0.433812 -0.319891,-0.547368 L 59.237839,9.8386785 a 0.64216822,0.63247235 0 0 0 -0.644304,0 l -5.320212,3.0244375 c -0.199697,0.113803 -0.321524,0.321616 -0.321524,0.547987 v 6.048874 c 0,0.227606 0.124339,0.437894 0.324035,0.55046 l 5.286302,2.967536 c 0.194672,0.110092 0.433303,0.111329 0.630488,0.0037 l 3.197654,-1.750338 c 0.100475,-0.05567 0.164529,-0.160808 0.164529,-0.274612 0,-0.113802 -0.06154,-0.220184 -0.162017,-0.275848 l -5.352868,-3.025674 c -0.100476,-0.05567 -0.162018,-0.160808 -0.162018,-0.273375 v -1.897541 c 0,-0.113308 0.06029,-0.21771 0.160763,-0.274117 l 1.665391,-0.946296 c 0.09922,-0.0569 0.221049,-0.0569 0.320268,0 l 1.666649,0.946296 c 0.09922,0.05567 0.160761,0.160809 0.160761,0.273375 v 1.491809 c 0,0.112565 0.06154,0.217709 0.160763,0.27461 0.09922,0.05567 0.222303,0.05567 0.321524,-0.0012 z m 0,0"
     id="path112"
     style="fill:#ffffff;fill-rule:evenodd;stroke:#000000;stroke-width:0.30000055;stroke-miterlimit:4;stroke-dasharray:none;stroke-opacity:1"
     inkscape:connector-curvature="0" />
  <path
     d="m 58.837818,15.139794 a 0.12182734,0.11998791 0 0 1 0.123082,0 l 1.021089,0.580148 c 0.03818,0.02177 0.06154,0.06185 0.06154,0.105143 v 1.161533 c 0,0.04329 -0.02336,0.08337 -0.06154,0.105144 L 58.9609,17.67191 a 0.12182734,0.11998791 0 0 1 -0.123082,0 l -1.020462,-0.580148 a 0.12295769,0.1211012 0 0 1 -0.0628,-0.105144 v -1.161533 c 0,-0.04329 0.02261,-0.08337 0.06154,-0.105143 z m 0,0"
     id="path114"
     style="fill:#689f63;fill-rule:evenodd;stroke:#646464;stroke-width:0.15000027;stroke-miterlimit:4;stroke-dasharray:none;stroke-opacity:1"
     inkscape:connector-curvature="0" />
  <g
     style="stroke-width:1.20343506;stroke-miterlimit:4;stroke-dasharray:none"
     clip-path="url(#a)"
     transform="matrix(0.12559519,0,0,0.12369888,-0.5491161,-18.161924)"
     id="g118">
    <path
       d="m 331.363,246.793 -118.715,-58.19 -60.87,124.174 118.712,58.193 z m 0,0"
       id="path116"
       inkscape:connector-curvature="0"
       style="fill:url(#b);stroke-width:1.20343506;stroke-miterlimit:4;stroke-dasharray:none" />
  </g>
  <g
     style="stroke-width:1.20343506;stroke-miterlimit:4;stroke-dasharray:none"
     clip-path="url(#c)"
     transform="matrix(0.12559519,0,0,0.12369888,-0.5491161,-18.161924)"
     id="g122">
    <path
       d="m 144.07,264.004 83.825,113.453 110.86,-81.906 -83.83,-113.45 z m 0,0"
       id="path120"
       inkscape:connector-curvature="0"
       style="fill:url(#d);stroke-width:1.20343506;stroke-miterlimit:4;stroke-dasharray:none" />
  </g>
  <g
     style="stroke-width:1.20343506;stroke-miterlimit:4;stroke-dasharray:none"
     clip-path="url(#e)"
     transform="matrix(0.12559519,0,0,0.12369888,-0.5491161,-18.161924)"
     id="g126">
    <path
       d="m 197.02,225.934 v 107.43 h 91.683 v -107.43 z m 0,0"
       id="path124"
       style="fill:url(#f);stroke:none;stroke-width:1.20343506;stroke-miterlimit:4;stroke-dasharray:none;stroke-opacity:1"
       inkscape:connector-curvature="0" />
  </g>
</svg>
