<?xml version="1.0" encoding="UTF-8" standalone="no"?>
<svg
   xmlns:dc="http://purl.org/dc/elements/1.1/"
   xmlns:cc="http://creativecommons.org/ns#"
   xmlns:rdf="http://www.w3.org/1999/02/22-rdf-syntax-ns#"
   xmlns:svg="http://www.w3.org/2000/svg"
   xmlns="http://www.w3.org/2000/svg"
   xmlns:sodipodi="http://sodipodi.sourceforge.net/DTD/sodipodi-0.dtd"
   xmlns:inkscape="http://www.inkscape.org/namespaces/inkscape"
   viewBox="0 0 358 229"
   version="1.1"
   id="svg72"
   sodipodi:docname="section-top.svg"
   inkscape:version="0.92.4 (5da689c313, 2019-01-14)">
  <metadata
     id="metadata78">
    <rdf:RDF>
      <cc:Work
         rdf:about="">
        <dc:format>image/svg+xml</dc:format>
        <dc:type
           rdf:resource="http://purl.org/dc/dcmitype/StillImage" />
        <dc:title></dc:title>
      </cc:Work>
    </rdf:RDF>
  </metadata>
  <defs
     id="defs76" />
  <sodipodi:namedview
     pagecolor="#ffffff"
     bordercolor="#666666"
     borderopacity="1"
     objecttolerance="10"
     gridtolerance="10"
     guidetolerance="10"
     inkscape:pageopacity="0"
     inkscape:pageshadow="2"
     inkscape:window-width="1366"
     inkscape:window-height="715"
     id="namedview74"
     showgrid="false"
     inkscape:zoom="0.56094504"
     inkscape:cx="203.10124"
     inkscape:cy="-179.07727"
     inkscape:window-x="-8"
     inkscape:window-y="-8"
     inkscape:window-maximized="1"
     inkscape:current-layer="svg72" />
  <path
     stroke-miterlimit="22.926"
     d="m 211.31156,131.47948 c 3.03749,0.50969 6.14749,0.8123 9.31544,0.89252 0.998,0.025 1.992,0.028 2.982,0.009 l -1.558,-12.142 13.247,-1.536 1.55,12.077 c 6.35184,-1.43465 12.45404,-3.80913 18.105,-7.045 l -7.217,-10.02 10.915,-7.662 7.146,9.922 c 4.85705,-4.2736 9.06112,-9.23641 12.478,-14.73 l -11.009,-5.547 6.145,-11.836 10.714,5.398 c 2.32319,-6.322964 3.66015,-12.965605 3.964,-19.695 l -12.293,0.851 -0.76,-13.314 12.331,-0.853 c -1.0098,-6.443252 -2.97792,-12.699166 -5.839,-18.56 l -10.277,6.625 -7.089,-11.295 10.335,-6.664 C 270.76294,21.508524 266.37558,17.20261 261.46,13.56 L 254.774,23.767 243.2,17.143 249.187,6.379 c -5.78524,-2.589035 -11.91593,-4.3238204 -18.2,-5.15 l -0.35,13.791 -13.327,-0.5 0.347,-13.703 h -0.001 c -6.4593,0.446952 -12.81653,1.8498966 -18.864,4.163 l 5.525,10.93 -11.9,6.015 -5.532,-10.944 c -5.50441,3.5172 -10.45835,7.82919 -14.701,12.796 l 10.097,6.814 -7.46,11.053 -10.232,-6.905 c -3.1192,5.648007 -5.38541,11.726513 -6.725,18.038 L 170,54.054 168.603,67.316 156.43,66.034 c -0.0308,3.968803 0.29135,7.860949 0.93749,11.645982 m 53.76042,29.200298 c 1.93006,0.53677 3.92237,0.94148 5.96809,1.20272 22.943,2.93 43.918,-13.294 46.849,-36.238 2.93,-22.943 -13.294,-43.918 -36.237,-46.849 v 0.001 c -22.944,-2.931 -43.92,13.293 -46.85,36.236 -0.71244,5.57893 -0.29242,11.041505 1.0813,16.156583"
     id="path2"
     style="clip-rule:evenodd;fill:none;fill-rule:evenodd;stroke:#ffffff;stroke-width:1.70099998;stroke-miterlimit:22.9260006;stroke-opacity:1"
     inkscape:connector-curvature="0"
     sodipodi:nodetypes="ccccccccccccccccccccccccccccccccccccccccccccccccccc" />
  <path
     fill-rule="evenodd"
     clip-rule="evenodd"
     fill="#FFF"
     stroke="#000004"
     stroke-width="1.701"
     stroke-miterlimit="22.926"
     d="M66.727 77.499h137.171c4.191 0 7.62 3.429 7.62 7.62v99.073c0 4.192-3.429 7.621-7.62 7.621H66.728c-4.192 0-7.621-3.43-7.621-7.62V85.118c0-4.191 3.429-7.62 7.62-7.62z"
     id="path4"
     style="stroke:#ffffff;stroke-opacity:1;fill:none" />
  <path
     fill-rule="evenodd"
     clip-rule="evenodd"
     fill="#FFF"
     stroke="#000004"
     stroke-width="1.701"
     stroke-miterlimit="22.926"
     d="M225.132 191.813v.701c0 7.33-5.996 13.326-13.325 13.326H58.819c-7.33 0-13.325-5.997-13.325-13.326v-.701h179.638z"
     id="path6"
     style="stroke:#ffffff;stroke-opacity:1;fill:none" />
  <path
     fill="none"
     stroke="#6D6E71"
     stroke-width=".85"
     stroke-miterlimit="22.926"
     stroke-dasharray="4.2519603,2.5511758"
     d="M45.493 124.762v46.852h65.982"
     id="path8" />
  <path
     stroke-miterlimit="22.926"
     d="m 211.00177,97.979734 c 3.55556,1.288614 7.39186,1.991266 11.39223,1.991266 18.464,0 33.432,-14.969 33.432,-33.433 0,-18.464 -14.968,-33.432 -33.432,-33.432 -18.464,0 -33.433,14.968 -33.433,33.432 0,3.656517 0.58705,7.175967 1.67204,10.469238"
     id="path16"
     style="clip-rule:evenodd;fill:none;fill-opacity:1;fill-rule:evenodd;stroke:#ffffff;stroke-width:0.85000002;stroke-miterlimit:22.9260006;stroke-opacity:1"
     inkscape:connector-curvature="0"
     sodipodi:nodetypes="cssssc" />
  <path
     fill="none"
     stroke="#000004"
     stroke-width=".85"
     stroke-miterlimit="22.926"
     d="M67.082 85.213h136.461V184.1H67.082V85.213z"
     id="path10"
     style="stroke:#ffffff;stroke-opacity:1" />
  <path
     fill-rule="evenodd"
     clip-rule="evenodd"
     fill="#FFF"
     stroke="#000004"
     stroke-width=".85"
     stroke-miterlimit="22.926"
     d="M45.494 37.282c-23.274 0-42.141 18.867-42.141 42.14s18.867 42.141 42.14 42.141c23.274 0 42.141-18.867 42.141-42.14s-18.867-42.141-42.14-42.141z"
     id="path12"
     style="stroke:#ffffff;stroke-opacity:1" />
  <path
     fill-rule="evenodd"
     clip-rule="evenodd"
     fill="#FFF"
     stroke="#6D6E71"
     stroke-width=".85"
     stroke-miterlimit="22.926"
     d="M45.493 118.364a3.2 3.2 0 1 1 0 6.398 3.2 3.2 0 0 1 0-6.398zM111.475 168.415a3.2 3.2 0 1 1 0 6.398 3.2 3.2 0 0 1 0-6.398zM203.543 147.878a3.199 3.199 0 1 1 0 6.397 3.199 3.199 0 0 1 0-6.397z"
     id="path14" />
  <path
     fill="none"
     stroke="#6D6E71"
     stroke-width=".85"
     stroke-miterlimit="22.926"
     d="M23.374 223.376v-9.168m4.584 4.584H18.79"
     id="path18" />
  <path
     fill-rule="evenodd"
     clip-rule="evenodd"
     fill="#FFF"
     stroke="#6D6E71"
     stroke-width=".85"
     stroke-miterlimit="22.926"
     stroke-dasharray="4.2519603,2.5511758"
     d="M289.09 115.643c16.006 0 28.981 12.976 28.981 28.982s-12.975 28.982-28.982 28.982c-16.005 0-28.981-12.976-28.981-28.982s12.976-28.982 28.981-28.982z"
     id="path20"
     style="stroke:#ffffff;stroke-opacity:1;fill:none" />
  <path
     clip-rule="evenodd"
     fill="none"
     stroke="#000004"
     stroke-width=".85"
     stroke-miterlimit="22.926"
     d="M289.09 121.563c12.736 0 23.061 10.325 23.061 23.062 0 12.736-10.325 23.062-23.062 23.062-12.736 0-23.061-10.326-23.061-23.062 0-12.737 10.325-23.062 23.061-23.062z"
     id="path22"
     style="stroke:#ffffff;stroke-opacity:1" />
  <path
     fill-rule="evenodd"
     clip-rule="evenodd"
     fill="#FFF"
     stroke="#6D6E71"
     stroke-width=".85"
     stroke-miterlimit="22.926"
     d="M260.108 147.425a3.2 3.2 0 1 1 0 6.398 3.2 3.2 0 0 1 0-6.398z"
     id="path24" />
  <path
     fill="#FFF"
     d="M182.152 151.777c-3.86-2.217-7.727-4.419-11.6-6.61.016-4.493.016-8.987 0-13.48 3.899-2.233 7.79-4.478 11.671-6.74a1384.09 1384.09 0 0 0 10.94 6.344c.567.327.687.552.71.852l-.002 2.874c-.053.258-.206.468-.752.778a427.17 427.17 0 0 0-4.302 2.485l-1.647.96a75.107 75.107 0 0 1 .017-3.23l.014-.52-.458-.249a134.677 134.677 0 0 1-4.196-2.404l-.434-.258-.435.259a164.861 164.861 0 0 1-4.185 2.41l-.445.247.008.509c.024 1.59.048 3.212-.02 4.792l-.023.52.453.257c2.897 1.642 5.785 3.3 8.673 4.958l2.671 1.532c-.427.251-.838.476-1.249.702l-1.893 1.045c-1.174.65-2.35 1.3-3.516 1.967z"
     id="path26" />
  <path
     fill="#000004"
     d="M182.222 125.93a1373.22 1373.22 0 0 0 10.518 6.1c.161.092.242.154.28.188v2.626a2.033 2.033 0 0 1-.32.211c-1.428.81-2.847 1.637-4.265 2.464l-.424.246c.002-.589.01-1.167.026-1.732l.027-1.043-.916-.497a127.088 127.088 0 0 1-4.168-2.388l-.869-.515-.868.517c-1.398.833-2.798 1.64-4.163 2.398l-.89.535.016 1.018c.023 1.55.047 3.152-.02 4.7l-.045 1.041.906.514c2.902 1.644 5.794 3.305 8.686 4.966l1.353.776-.565.311-1.29.715c-1.01.558-2.048 1.132-3.077 1.716-3.49-2.002-7.099-4.058-10.75-6.125.013-4.14.013-8.333 0-12.493 3.816-2.187 7.372-4.24 10.818-6.248m.002-1.97c-4.164 2.43-8.34 4.839-12.524 7.233.018 4.823.018 9.646 0 14.468 4.158 2.352 8.31 4.716 12.452 7.095 1.718-.991 3.46-1.94 5.195-2.904.704-.391 1.416-.768 2.108-1.18.537-.318.534-.861.017-1.202-.152-.1-.313-.187-.47-.278-3.704-2.124-7.403-4.256-11.117-6.36.07-1.612.045-3.228.021-4.842a161.154 161.154 0 0 0 4.208-2.423c1.396.827 2.797 1.646 4.222 2.42a80.305 80.305 0 0 0-.013 3.542c.008.432.269.69.619.69a.886.886 0 0 0 .36-.083c.111-.05.214-.116.32-.177 1.97-1.144 3.934-2.301 5.917-3.425.598-.339 1.073-.729 1.182-1.445v-3.011c-.057-.749-.513-1.168-1.135-1.525-3.798-2.179-7.584-4.38-11.362-6.593z"
     id="path28"
     style="fill:none" />
  <path
     fill="#FFF"
     d="M78.755 131.512c3.895-2.236 7.786-4.475 11.676-6.717 3.885 2.245 7.773 4.486 11.674 6.704-.016 2.23-.014 4.46-.012 6.69l.001 1.435-.03.836v1.786c.001 2.18.002 4.361-.008 6.542l-1.542-.898c-1.592-.91-3.183-1.82-4.773-2.736-.14-.08-.276-.193-.275-.602l-.002-2.5c-.004-1.689-.007-3.378.016-5.066.015-1.151-.464-1.964-1.463-2.487l-3.594-2.111-3.726 2.203c-.87.463-1.326 1.239-1.322 2.288.005.945.003 1.891 0 2.837-.003 1.74-.006 3.533.03 5.31-1.64.896-3.274 1.837-4.858 2.75-.588.338-1.176.677-1.765 1.014l-.027-17.278z"
     id="path30" />
  <path
     fill="#000004"
     d="M90.43 125.777a1907.86 1907.86 0 0 0 10.821 6.215c-.012 2.072-.01 4.16-.008 6.187v.58h-.03v1.701l.001 1.758c0 1.697.001 3.394-.003 5.09l-.522-.298a2227.63 2227.63 0 0 1-4.373-2.506c.002-.828 0-1.657-.002-2.486-.003-1.647-.006-3.351.016-5.02.02-1.445-.63-2.56-1.878-3.23l-3.166-1.86-.865-.508-.863.51-3.265 1.932c-1.163.634-1.774 1.685-1.768 3.04.004.943.002 1.885 0 2.828-.003 1.578-.006 3.2.02 4.818-1.497.825-2.982 1.68-4.427 2.513l-.489.281-.008-6.208c-.004-3.037-.008-6.074-.014-9.11 3.61-2.073 7.217-4.149 10.823-6.227m.001-1.964c-4.173 2.406-8.348 4.81-12.527 7.206.014 6.41.017 12.82.03 19.23 2.78-1.568 5.523-3.205 8.333-4.723-.072-2.883-.028-5.767-.041-8.65-.003-.71.264-1.212.904-1.552l3.294-1.95 3.198 1.879c.714.373 1.018.904 1.007 1.722-.033 2.524-.01 5.05-.014 7.574-.001.577.19 1.049.702 1.343 2.186 1.257 4.377 2.507 6.565 3.76a.86.86 0 0 0 .417.128.485.485 0 0 0 .406-.212c.138-.187.2-.47.201-.712.013-2.798.009-5.597.009-8.396h.03c0-3.151-.012-6.302.015-9.453a1899.12 1899.12 0 0 1-12.529-7.194z"
     id="path32"
     style="stroke:none;fill:none;fill-opacity:1" />
  <path
     fill="#5379C5"
     d="M121 126.282l10.646 6.147v12.293L121 150.87l-10.647-6.147V132.43L121 126.282m0-1.848a.75.75 0 0 0-.376.1l-11.596 6.696a.75.75 0 0 0-.376.65v13.39a.75.75 0 0 0 .376.651l11.596 6.695a.75.75 0 0 0 .751 0l11.597-6.695a.751.751 0 0 0 .375-.65v-13.39a.75.75 0 0 0-.375-.651l-11.597-6.696a.75.75 0 0 0-.375-.1zM184.505 137.122l-2.18-1.26a.225.225 0 0 0-.225 0l-2.18 1.26a.225.225 0 0 0-.113.194v2.518c0 .08.042.155.112.195l2.18 1.26c.07.04.156.04.226 0l2.18-1.26a.225.225 0 0 0 .113-.195v-2.518a.225.225 0 0 0-.113-.194z"
     id="path34" />
  <path
     fill="#FFF"
     d="M151.578 152.09a1261.63 1261.63 0 0 0-11.683-6.754c.02-4.353.02-8.882 0-13.476 3.907-2.235 7.803-4.484 11.694-6.744.752.47 1.522.907 2.271 1.333.493.28.987.56 1.474.849l1.284.76V108.89c.825.453 1.646.913 2.467 1.372l1.869 1.049c.741.423 1.503.858 2.314 1.22-.02 4.194-.018 8.388-.016 12.582v7.921c-.002 4.103-.004 8.206.015 12.309a982.527 982.527 0 0 0-11.69 6.747zm.004-19.846c-.188 0-.373.05-.536.144l-4.776 2.757a1.078 1.078 0 0 0-.538.931v5.513c0 .383.206.739.538.93l4.774 2.756a1.066 1.066 0 0 0 1.08-.003l4.77-2.753c.331-.191.537-.547.537-.93v-5.513c0-.383-.206-.74-.538-.93l-4.773-2.757a1.08 1.08 0 0 0-.538-.145z"
     id="path36" />
  <path
     fill="#000004"
     d="M157.47 110.334l1.188.663 1.18.66c.231.129.462.26.693.392.607.347 1.228.7 1.884 1.022-.017 4.01-.015 8.065-.013 11.996l.001 3.91-.001 3.918c-.002 3.917-.004 7.958.012 11.954a990.343 990.343 0 0 0-10.837 6.256 1236.427 1236.427 0 0 0-10.83-6.26c.018-4.037.018-8.23.001-12.493 3.35-1.918 6.91-3.97 10.828-6.245.625.377 1.253.734 1.867 1.083.488.277.975.554 1.458.84l2.566 1.52.001-2.983c.002-4.494.002-8.988.002-13.483v-2.75m-5.888 35.936c.337 0 .67-.089.963-.258l4.773-2.755c.594-.343.964-.983.964-1.669v-5.512c0-.686-.37-1.325-.963-1.668l-4.775-2.756a1.929 1.929 0 0 0-1.925 0l-4.773 2.756a1.931 1.931 0 0 0-.964 1.668v5.512c0 .687.37 1.326.963 1.668l4.774 2.757c.292.168.625.257.963.257m4.807-38.352c-.36 0-.602.285-.619.787-.005.137-.001.274-.001.41 0 5.817 0 11.634-.002 17.451-1.383-.82-2.81-1.569-4.158-2.445-4.18 2.429-8.368 4.847-12.566 7.247.022 4.82.023 9.64 0 14.46 4.19 2.395 8.372 4.805 12.534 7.248 4.165-2.44 8.343-4.86 12.543-7.24-.028-5.62-.016-11.24-.016-16.86 0-5.669-.012-11.338.017-17.007-1.213-.477-2.32-1.166-3.456-1.799-1.26-.702-2.518-1.411-3.783-2.106a1.04 1.04 0 0 0-.493-.146zm-4.807 36.652a.225.225 0 0 1-.113-.03l-4.774-2.757a.225.225 0 0 1-.112-.195v-5.512c0-.08.043-.155.112-.195l4.774-2.756a.225.225 0 0 1 .225 0l4.774 2.756c.07.04.113.115.113.195v5.512c0 .08-.043.155-.113.195l-4.774 2.756a.225.225 0 0 1-.112.03z"
     id="path38"
     style="stroke:none;fill:none" />
  <path
     fill="none"
     stroke="#6D6E71"
     stroke-width=".85"
     stroke-miterlimit="22.926"
     stroke-dasharray="4.2519603,2.5511758"
     d="M206.742 151.076h50.167"
     id="path40" />
  <path
     fill="#00001D"
     d="M278.628 145.41l-.973.25v.055l.973.251 5.521 2.408v1.133l-7.437-3.408v-.866l7.437-3.4v1.134l-5.52 2.444zm15.236-2.47v-1.106l7.603 3.399v.866l-7.603 3.408v-1.115l5.687-2.462.97-.243v-.052l-.97-.261-5.687-2.435zm-7.179 8.796h-.98l5.47-14.223h.973l-5.463 14.223z"
     id="path42"
     style="fill:#ffffff;fill-opacity:1" />
  <g
     stroke-linejoin="round"
     stroke-miterlimit="22.926"
     id="g52">
    <path
       fill="none"
       stroke="#4368A7"
       d="M42.846 76.853a2.66 2.66 0 0 1-.961 3.639 2.66 2.66 0 0 1-3.636-3.645l-5.962 3.473-3.835-6.585c.63.139 1.31.05 1.911-.3a2.66 2.66 0 1 0-2.678-4.598 2.655 2.655 0 0 0-1.204 1.514l-3.835-6.584 5.4-3.145a2.66 2.66 0 0 0 3.939 2.871 2.66 2.66 0 0 0-.555-4.842l5.4-3.145 4.161 7.145a2.66 2.66 0 0 1 1.324-2.335 2.66 2.66 0 1 1 2.678 4.598 2.66 2.66 0 0 1-2.684 0l4.162 7.145-5.963 3.472a2.657 2.657 0 0 1 2.338 1.322z"
       id="path44" />
    <path
       fill="none"
       stroke="#14100D"
       d="M58.399 60.709a2.66 2.66 0 0 0-2.663-2.66 2.66 2.66 0 0 0-1.307 4.978h-6.9v7.62a2.655 2.655 0 0 1 1.803-.702 2.66 2.66 0 1 1 0 5.32 2.655 2.655 0 0 1-1.803-.702v7.62h16.415V63.027h-6.9a2.657 2.657 0 0 0 1.355-2.318z"
       id="path46" />
    <path
       fill-rule="evenodd"
       clip-rule="evenodd"
       fill="#FFF"
       stroke="#14100D"
       d="M58.399 79.865a2.66 2.66 0 0 0-2.663-2.66 2.66 2.66 0 0 0-1.307 4.978h-6.9v19.156h16.415V82.183h-6.9a2.657 2.657 0 0 0 1.355-2.318z"
       id="path48" />
    <path
       fill-rule="evenodd"
       clip-rule="evenodd"
       fill="#FFF"
       stroke="#14100D"
       d="M31.115 101.34v-7.62a2.654 2.654 0 0 0 1.803.702 2.66 2.66 0 1 0 0-5.321c-.695 0-1.329.266-1.803.702v-7.62h6.249a2.66 2.66 0 0 0 1.958 4.463 2.66 2.66 0 0 0 1.959-4.463h6.248v8.269a2.66 2.66 0 0 1 2.319-1.351 2.66 2.66 0 1 1 0 5.32 2.66 2.66 0 0 1-2.319-1.35v8.268H31.115z"
       id="path50" />
  </g>
  <g
     id="g899"
     transform="translate(104.105,31.522705)">
    <g
       id="g894">
      <path
         style="fill:none;stroke:#ffffff;stroke-width:0.85000002;stroke-miterlimit:22.9260006;stroke-opacity:1"
         d="m 112.15503,10.494295 v 35.438 m 0,-35.438 c 6.04371,5.910715 9.10559,11.706541 9.06897,17.719 m -9.06897,-17.719 c -11.998,11.733 -13.184191,23.928581 -1.11419,35.326581 M 129.87403,28.213295 H 121.224 94.43603 m 33.408,-8.241 h -31.378 m 15.6216,16.62 h -15.6216"
         id="path54"
         inkscape:connector-curvature="0"
         sodipodi:nodetypes="ccccccccccccc" />
    </g>
    <path
       sodipodi:open="true"
       d="M 112.15843,45.932293 A 17.719,17.719 0 0 1 95.742912,34.891999 17.719,17.719 0 0 1 99.785239,15.526645 17.719,17.719 0 0 1 119.24662,11.9753 17.719,17.719 0 0 1 129.86828,28.664744"
       sodipodi:end="0.025481116"
       sodipodi:start="1.5706048"
       sodipodi:ry="17.719"
       sodipodi:rx="17.719"
       sodipodi:cy="28.213293"
       sodipodi:cx="112.15504"
       sodipodi:type="arc"
       id="circle56"
       style="fill:none;stroke:#ffffff;stroke-width:0.85000002;stroke-miterlimit:22.9260006;stroke-opacity:1" />
  </g>
  <path
     style="fill:none;stroke:#ffffff;stroke-width:0.85000002;stroke-miterlimit:22.9260006;stroke-opacity:1"
     inkscape:connector-curvature="0"
     id="path60"
     d="m 216.889,73.927 h 28.459 v 6.794 h -28.459 z m 0,-6.794 h 28.459 v 6.794 h -28.459 z m 0,-6.794 h 28.459 v 6.794 h -28.459 z m 8.44,16.985 h 11.579 M 225.329,70.53 h 11.579 m -11.579,-6.794 h 11.579" />
  <path
     fill="none"
     stroke="#6D6E71"
     stroke-width=".85"
     stroke-miterlimit="22.926"
     stroke-dasharray="4.2519603,2.5511758"
     d="M45.493 124.762v46.852H23.375v47.178H324.74V202.8c-10.355-2.92-28.899 1.36-28.962-8.762-.101-16.382 51.227-1.906 51.302-13.54.055-8.555-14.114-5.744-20.08-6.88l-1.143-107.08h-70.172"
     id="path64" />
  <path
     fill-rule="evenodd"
     clip-rule="evenodd"
     fill="#FFF"
     stroke="#6D6E71"
     stroke-width=".85"
     stroke-miterlimit="22.926"
     d="M23.374 209.59a9.203 9.203 0 1 0 0 18.405 9.203 9.203 0 0 0 0-18.406z"
     id="path66" />
  <path
     fill="none"
     stroke="#6D6E71"
     stroke-width=".85"
     stroke-miterlimit="22.926"
     d="M23.374 223.376v-9.168m4.584 4.584H18.79"
     id="path68" />
  <path
     fill-rule="evenodd"
     clip-rule="evenodd"
     fill="#FFF"
     stroke="#6D6E71"
     stroke-width=".85"
     stroke-miterlimit="22.926"
     d="M256.826 63.34a3.199 3.199 0 1 1 0 6.397 3.199 3.199 0 0 1 0-6.398z"
     id="path70" />
</svg>
